<svg id="Capa_1" enable-background="new 0 0 512 512" height="512" viewBox="0 0 512 512" width="512" xmlns="http://www.w3.org/2000/svg"><g><path d="m494.47 36.666h-153.808c-4.149 0-7.513 3.363-7.513 7.513s3.364 7.513 7.513 7.513h153.808c1.381 0 2.504 1.123 2.504 2.504v81.64h-16.194c-3.647-38.901-36.472-69.451-76.31-69.451s-72.663 30.55-76.31 69.451h-313.134v-81.64c0-1.381 1.124-2.504 2.504-2.504h285.54c4.149 0 7.513-3.363 7.513-7.513s-3.364-7.513-7.513-7.513h-285.54c-9.666 0-17.53 7.864-17.53 17.53v323.678c0 9.666 7.864 17.53 17.53 17.53h89.149v1.146c0 6.337 3.277 12.013 8.764 15.181 5.488 3.17 12.042 3.167 17.53 0l28.279-16.327h87.017l.544 5.731c.328 3.454-1.73 6.663-5.006 7.804-6.459 2.525-17.652 4.598-21.221 11.355l-4.158 6.481c-5.218 8.135-2.845 19 5.291 24.22l33.638 21.577c7.86 5.257 19.286 2.743 24.221-5.289l77.145-120.267h23.154c9.666 0 17.53-7.864 17.53-17.53v-4.94h10.638c9.666 0 17.53-7.864 17.53-17.53v-33.027c0-9.666-7.864-17.53-17.53-17.53h-10.638v-4.94c0-9.666-7.864-17.53-17.53-17.53h-117.281c-12.779 0-25.383-3.377-36.45-9.767l-95.171-54.947c-5.489-3.169-12.042-3.168-17.53 0-5.488 3.169-8.764 8.844-8.764 15.181v72.003h-26.481c-9.666 0-17.53 7.864-17.53 17.53v33.027c0 9.666 7.864 17.53 17.53 17.53h26.48v55.832h-89.15c-1.381 0-2.504-1.123-2.504-2.504v-227.013h313.18c3.928 38.613 36.632 68.844 76.264 68.844s72.336-30.231 76.264-68.844h16.24v227.013c0 1.381-1.124 2.504-2.504 2.504h-125.702c-4.149 0-7.513 3.363-7.513 7.513s3.364 7.513 7.513 7.513h125.702c9.666 0 17.53-7.864 17.53-17.53v-323.678c0-9.666-7.864-17.53-17.53-17.53zm-244.184 340.448c-.66 1.029-1.193 2.128-1.622 3.264h-61.386l40.868-23.595c11.067-6.39 23.671-9.767 36.45-9.767h4.995zm18.645 82.056c-1.149 1.318-1.864 1.474-3.46.756l-33.638-21.577c-1.163-.745-1.502-2.298-.756-3.461l4.157-6.481c1.481-2.444 3.915-2.293 13.521-5.28s16-13.053 15.017-23.411l-1.224-12.903c-.052-.555.084-1.119.385-1.588l24.51-38.21h53.429zm141.115-187.685c1.381 0 2.504 1.123 2.504 2.504v33.027c0 1.381-1.124 2.504-2.504 2.504h-10.638v-38.036h10.638zm-28.168-22.47c1.381 0 2.504 1.123 2.504 2.504v77.967c0 1.381-1.124 2.504-2.504 2.504h-59.921v-82.976h59.921zm-260.173-64.559c.184-2.248 2.027-3.014 3.756-2.169l26.312 15.191v148.599c0 4.15 3.364 7.513 7.513 7.513s7.513-3.363 7.513-7.513v-139.923l53.834 31.081c13.348 7.707 28.55 11.78 43.963 11.78h42.335v82.976h-42.335c-15.413 0-30.615 4.073-43.963 11.78l-95.171 54.947c-2.083.857-3.442.044-3.757-2.168 0-.001 0-212.094 0-212.094zm-41.505 125.065c-1.381 0-2.504-1.123-2.504-2.504v-33.027c0-1.381 1.123-2.504 2.504-2.504h26.48v38.036h-26.48zm324.27-104.842c-33.985 0-61.634-27.649-61.634-61.635s27.649-61.634 61.634-61.634 61.634 27.649 61.634 61.635-27.649 61.634-61.634 61.634z"/><circle cx="55.532" cy="93.481" r="14.65"/><circle cx="100.084" cy="93.481" r="14.65"/><circle cx="144.636" cy="93.481" r="14.65"/><path d="m412.718 135.641c-5.039-1.781-10.596-3.921-13.604-6.279-.335-.263-.704-1.325-.432-2.768.132-.699.74-3.035 3.023-3.723 5.187-1.564 8.484 1.019 8.843 1.32l-.125-.112.91.511c7.402 4.158 14.937-5.231 9.276-11.558-1.771-1.634-4.908-3.612-8.979-4.75v-.929c0-4.15-3.364-7.513-7.513-7.513s-7.513 3.363-7.513 7.513v1.391c-6.521 2.275-11.351 7.972-12.689 15.068-1.289 6.84.982 13.497 5.925 17.373 4.704 3.69 11.369 6.325 17.869 8.623 4.128 1.46 4.547 4.429 4.171 6.664-.534 3.176-3.207 6.61-7.813 6.64-5.257.029-6.623-.18-10.513-2.724-3.721-2.433-8.796-1.143-10.846 2.953-1.736 3.468-.358 7.701 2.901 9.804 4.109 2.651 7.38 3.944 10.994 4.539v1.054c0 4.15 3.364 7.513 7.513 7.513s7.513-3.363 7.513-7.513v-1.876c8.423-2.917 13.817-10.447 15.069-17.898 1.746-10.378-3.873-19.75-13.98-23.323z"/></g></svg>