<svg id="filled_outline" enable-background="new 0 0 512 512" height="512" viewBox="0 0 512 512" width="512" xmlns="http://www.w3.org/2000/svg"><path d="m168 232v192h32v-104l-16-16 8-16z" fill="#e22526"/><path d="m344 168v256h-32v-224z" fill="#e22526"/><path d="m240 424h32l-16-104z" fill="#e22526"/><path d="m200 144h112l40-32v-72l-16-16 24-16 24 16v104l-72 72v88 200l16 16h-48l-24-184-24 184h-40l8-16v-168l-16-16 8-16-40-88z" fill="#00587e"/><path d="m208 184v56l-16-40z" fill="#e22526"/><path d="m240 144-16-72 16-16 56-8-8 24v40l-16 32z" fill="#fac8b2"/><path d="m200 144 48 24-16 80 24 24 24-24-16-80 48-24z" fill="#e22526"/><path d="m56 112 24-16 32 16 16-8 16 16-8 24h-24l-8 32h-40v-16l-16-24h8z" fill="#fac8b2"/><path d="m64 176h-32l-16 56-8 8v24h24v144h16l8 72-16 24 32-8 8 8v-96l23.9999924-.0000305 8.0000076 72.0000305-8 24 24-8 8 8v-96h32l-32-128 32-40-16-40-16-24h-32z" fill="#00587e"/><path d="m16 232 72-24 24 16-32 8-48 32h-24v-24z" fill="#fac8b2"/><path d="m112 224 56 16-32 40-56-48z" fill="#f4ab92"/><path d="m376 160 32 16v8h56v-8l32-8-8 32 16 56-24 40 16 152h-16l-8 40 8 16h-40v-56h-32l-8 40 8 16h-40v-56h-24v-24l32-128-32-24v-24.0000153-55.9999847l32-8z" fill="#00587e"/><path d="m392 168-8-40 16-8 16-16h32l16 16 16 8-16 48v8h-56v-8z" fill="#fac8b2"/><path d="m296 48-56 8-16 16h64z" fill="#ffec00"/><path d="m56 112 32 16v16h24 24l8-24-16-16-16 8-32-16z" fill="#ffec00"/><path d="m400 120 16 24h40l8-24 16 8-16 48-8-16h-40l-8 16-16-8-8-40z" fill="#ffec00"/><g fill="#04475e"><path d="m312 320h-16v184h32l-16-16z"/><path d="m256 320-24 184h-16l8-184z"/><path d="m312 200-16 64 16 56z"/><path d="m208 184 16 72-32 32 16-48z"/><path d="m312 200 72-72v-104l-24-16 16 32-8 80z"/><path d="m488 200-8 24 8 32h16z"/><path d="m344 192 32 56-32 24z"/><path d="m408 184 32 40 24-40z"/></g><path d="m424 176h24v16h-24z" fill="#ffec00"/><path d="m376 296 40-24-72 176v-24z" fill="#04475e"/><path d="m368 448h24l-8 56h-16z" fill="#04475e"/><path d="m440 448v56h16l8-56z" fill="#04475e"/><path d="m480 296 16 152-40-160z" fill="#04475e"/><path d="m504 256h-32-32l-32 16 72 24z" fill="#f4ab92"/><path d="m376 296 64-40h32l-32-24-64 16-32 24z" fill="#fac8b2"/><path d="m136 408v96l-8-8-8-88z" fill="#04475e"/><path d="m80 504-8-8-8-88h16z" fill="#04475e"/><path d="m80 232 88 176-32-128z" fill="#04475e"/><path d="m32 408 48-176-48 32z" fill="#04475e"/><path d="m136 176 8 56 24 8-16-40z" fill="#04475e"/><path d="m16 232 16-56 8 48z" fill="#04475e"/><path d="m288 72v40l-16 32h-16v-16l16-8-8-40v-8z" fill="#f4ab92"/><path d="m440 144 8 16h-8v16h8v8h16v-8l-8-16v-16l8-24-16-16z" fill="#f4ab92"/><path d="m112 144h-24l16 32z" fill="#f4ab92"/><path d="m56 112v24h8z" fill="#f4ab92"/><path d="m64 160 16 8v8h-16z" fill="#f4ab92"/><path d="m256 272v-128h56l-48 24 16 80z" fill="#911d33"/><path d="m201.3867188 201.9267578 12.2700195-12.2700195c3.1245117-3.1240234 3.1245117-8.1894531 0-11.3134766-3.1240234-3.1240234-8.1894531-3.1240234-11.3134766 0l-16 16c-2.2631836 2.2626953-2.9594727 5.6567383-1.7709961 8.6279297l16 40c1.2509766 3.1279297 4.2553711 5.0307617 7.4301758 5.0307617.9887695 0 1.9946289-.1845703 2.96875-.5742188 4.1020508-1.640625 6.0976563-6.2963867 4.456543-10.3989258z"/><path d="m511.6923828 253.8022461-15.4116211-53.9404297 7.4804688-29.9213867c.6816406-2.7265625-.1171875-5.6103516-2.1044922-7.597168-1.9868164-1.9873047-4.8706055-2.7866211-7.597168-2.1044922l-17.8616943 4.465332 11.3914795-34.1743164c1.2592773-3.7768555-.4506836-7.9047852-4.0117188-9.6850586l-14.8388672-7.4194336-15.0820313-15.0820313c-1.4999999-1.5004882-3.5351562-2.3432616-5.6567382-2.3432616h-32c-2.121582 0-4.1567383.8427734-5.6567383 2.3432617l-15.0820313 15.0820313-3.2612304 1.6306152v-91.0559082c0-2.6748047-1.3369141-5.1728516-3.5625-6.65625l-24-16c-2.6865234-1.7919922-6.1884766-1.7919922-8.875 0l-24 16c-1.9941406 1.3291016-3.2875977 3.4829102-3.5234375 5.8676758-.2363281 2.3852539.609375 4.7504883 2.3041992 6.4453125l13.6567383 13.6567383v64.8413086l-34.8061523 27.8452148h-24.2497559l10.2111816-20.4223633c.5556641-1.1108398.8447266-2.3354492.8447266-3.5776367v-38.7016602l7.5893555-22.7685547c.8769531-2.6303711.3291016-5.5268555-1.4472656-7.6557617s-4.5297852-3.1879883-7.2734375-2.793457l-56 8c-1.7133789.2446289-3.3017578 1.0385742-4.5253906 2.2626953l-16 16c-1.934082 1.934082-2.7460938 4.722168-2.152832 7.3920898l13.8366088 62.2646485h-30.0270386c-2.3354492 0-4.5541992 1.0205078-6.0742188 2.793457l-41.1275024 47.9820557-10.1420288-15.2130127c-1.4833984-2.2255859-3.9814453-3.5625-6.65625-3.5625h-21.7537842l3.9998779-16h17.7539063c3.4433594 0 6.5004883-2.2036133 7.5893555-5.4702148l8-24c.9584961-2.8745117.2099609-6.0439453-1.9326172-8.1865234l-16-16c-2.4350586-2.4350586-6.1538086-3.0385742-9.234375-1.4985352l-12.4223633 6.2109375-28.4223633-14.2109375c-2.5678711-1.2836914-5.6264648-1.09375-8.0151596.4990234l-23.9999962 16c-2.2255668 1.4833984-3.5624809 3.9814453-3.5624809 6.65625v16c-2.9501953 0-5.6611328 1.6240234-7.0532227 4.2250977-1.3925781 2.6010742-1.2397461 5.7578125.3969727 8.2124023l14.65625 21.9848633v5.5776367h-24c-3.5717773 0-6.7109375 2.3676758-7.6923828 5.8022461l-15.4301758 54.0068359-6.5341797 6.5341797c-1.5004883 1.5-2.3432617 3.5351563-2.3432617 5.6567383v24c0 4.418457 3.581543 8 8 8h16v136c0 4.418457 3.581543 8 8 8h8.8398438l6.887207 61.9873047-14.3833008 21.5751953c-1.8334961 2.75-1.7871094 6.3442383.1166992 9.0458984 1.5214844 2.1586914 3.9775391 3.3920898 6.5390625 3.3920898.6445313 0 1.2958984-.078125 1.940918-.2392578l27.6054688-6.9013672 4.7973633 4.796875c2.2880859 2.2880859 5.7280273 2.9731445 8.7182617 1.734375 2.9892578-1.2382812 4.9384765-4.1552734 4.9384765-7.3911132v-88h8.8398438l7.0151367 63.137207-7.4443359 22.3330078c-.9584961 2.8745117-.2099609 6.0439453 1.9326172 8.1865234 2.1430664 2.1425781 5.3129883 2.8911133 8.1865234 1.9326172l19.3095703-6.4365234 4.5039063 4.5039063c2.2875977 2.2880859 5.7285156 2.9731445 8.7182617 1.734375 2.9892578-1.2382813 4.9384765-4.1552735 4.9384765-7.3911133v-88h16v8c0 4.418457 3.581543 8 8 8h24v54.1113281l-7.1552734 14.3110352c-1.2402344 2.4799805-1.1074219 5.4248047.3500977 7.7836914 1.4575195 2.3583984 4.0327148 3.7939453 6.8051757 3.7939453h40c4.0185547 0 7.4130859-2.980957 7.9326172-6.965332l16.0673828-123.1816407 16.0673828 123.1816406c.5195313 3.9843751 3.9140625 6.9653321 7.9326172 6.9653321h48c3.2358398 0 6.152832-1.9492188 7.3911133-4.9384766s.5537109-6.4301758-1.734375-8.7182617l-13.6567383-13.6567383v-52.6865234h16v16c0 4.418457 3.581543 8 8 8h16v48c0 4.418457 3.581543 8 8 8h40c2.7724609 0 5.3476563-1.4355469 6.8051758-3.7939453 1.4575195-2.3588867 1.590332-5.3037109.3500977-7.7836914l-6.7724609-13.5449219 6.1757812-30.8774414h17.4414062v48c0 4.418457 3.581543 8 8 8h40c2.7724609 0 5.3476563-1.4355469 6.8051758-3.7939453 1.4575195-2.3588867 1.590332-5.3037109.3500977-7.7836914l-6.7724609-13.5449219 6.1757812-30.8774414h9.4414062c2.2675781 0 4.4282227-.9624023 5.9458008-2.6474609 1.5170898-1.6850586 2.2475586-3.9350586 2.0102539-6.1899414l-15.7202148-149.340332 22.6240234-37.706543c1.1391601-1.8984375 1.4404297-4.1845704.8325195-6.3134766zm-31.3847656-51.6044922 13.0866699 45.8022461h-18.7280273l-29.8664551-22.3999023c-1.9267578-1.4453125-4.4018555-1.9458008-6.7402344-1.3613281l-64 16c-1.0341797.2587891-2.0063477.7216797-2.859375 1.3613281l-19.2001953 14.4001464v-57.7541504l25.9404297-6.4848633c3.5610351-.8906249 6.0595703-4.090332 6.0595703-7.7612304v-11.0556641l16 8v3.0556641c0 4.418457 3.581543 8 8 8h56c4.418457 0 8-3.581543 8-8v-1.7539063l13.0048828-3.2509766-4.7661133 19.0644531c-.340332 1.3618165-.3164062 2.7885743.0688477 4.1381837zm-103.8963623 84.1108399-19.0780029-14.3085938 22.1745605-16.6308594 58.7382813-14.6845703 9.7539062 7.3154297h-8c-1.4995117 0-2.96875.4213867-4.2402344 1.2158203zm2.6756592-142.0820313 1.8605957 9.3029785-1.369873-.6848145c-2.4794922-1.2407227-5.425293-1.1074219-7.7836914.3500977s-3.7939454 4.0327149-3.7939454 6.8051758v17.7539063l-16 3.9998779v-10.4403076zm-27.0869141 143.7731934 14.9506836 11.2131348-14.9506836 59.802246zm51.5776367-160.8444825c.769043-.3842773 1.4711914-.890625 2.0791016-1.4985352l13.6567383-13.6567382h25.3730469l13.6567383 13.6567383c.6079102.6079102 1.3100586 1.1142578 2.0791016 1.4985352l9.7939453 4.8969727-13.7700195 41.3110352c-.0002441.0007324-.0004883.0012207-.0007324.0019531l-.0349121.1049805.0029297.0009766c-.2668459.7995604-.4135744 1.6499022-.4135744 2.5288084h-40c0-3.0302734-1.7119141-5.800293-4.4223633-7.1552734l-12.5002441-6.2501221-6.0344238-30.1717529zm-143.1552734 33.6894532c-2.7177734 1.3588867-4.3862305 4.1079102-4.4223633 7.0546875-.0361328-2.9467773-1.7045898-5.6958008-4.4223633-7.0546875l-17.6894531-8.8447266h6.1118164 32 6.1118164zm10.8935547 84.5258789-15.315918 15.3159179-15.315918-15.315918 15.1606445-75.8017578c.0981445-.4921875.1494141-.9848633.1552734-1.4731445.0058594.4882813.0571289.980957.1552734 1.4731445zm-38.553711-170.8188477 11.0087891-11.0092773 40.5463867-5.7924805-3.9067383 11.7202148c-.2719726.815918-.4106445 1.6699219-.4106445 2.5297852v38.1113281l-12.9443359 25.8886719h-20.6381836zm-97.8392334 193.9880371-37.9575806-32.5350342 14.8964844-3.723999 42.3812256 12.1090088zm-64.2667236-112.9772949-9.1635742-13.7460938c1.5439453-1.458496 2.5073242-3.5249023 2.5073242-5.8164062v-19.71875l16.574707-11.0498047 27.8476563 13.9238281c2.2519531 1.1259766 4.9033203 1.1259766 7.1552734 0l10.8427734-5.4213867 8.4267578 8.4267578-4.6132812 13.8393555h-18.2338867c-3.6708984 0-6.8706055 2.4985352-7.7612305 6.0595703l-6.4851074 25.9404297h-25.7536621v-8c0-1.5795898-.4672852-3.1235352-1.34375-4.4375zm-32.6220703 28.4375h93.6845703l13.1625977 19.7446289 9.6329956 24.0820313-39.1168823-11.1762695-22.9599839-15.3066407c-2.0541763-1.3696289-4.6244888-1.7148438-6.9672623-.9331055l-57.6112671 19.2037354zm-22.0341797 72v-12.6860352l4.3214722-4.3217773 66.4963989-22.1655273 5.6972656 3.7983398-14.4555664 3.6137695c-.8896484.2226563-1.734375.5961914-2.4970932 1.1049805l-45.9843521 30.65625zm120 144c-4.418457 0-8 3.581543-8 8v80c-.0004883 0-.0004883 0-.0009766 0-.8461914 0-1.7001953.1342773-2.5288086.4106445l-8.8212891 2.9404297 2.9404297-8.8212891c.3662109-1.0981445.4897461-2.2626953.3618164-3.4130859l-8-72c-.4501952-4.0517578-3.8749999-7.1166992-7.9511718-7.1166992h-24c-4.418457 0-8 3.581543-8 8v80c-.6464844 0-1.2978516.078125-1.9404297.2387695l-11.9248047 2.9814453 4.5214844-6.7827148c1.0444336-1.565918 1.5029297-3.4501953 1.2949219-5.3208008l-8-72c-.4501953-4.0517578-3.875-7.1166992-7.9511719-7.1166992h-8v-131.71875l39.3947144-26.2631836 49.4626465 42.3966064 28.8965454 115.5853272zm8.722168-118.0961914 15.277832-19.0974121v80.2084961zm31.277832 134.0961914v-143.8670654l7.1376953 15.7030029-6.2929688 12.5864258c-1.5400391 3.0795898-.9365234 6.7998047 1.4985352 9.234375l13.6567383 13.6567383v92.6865234zm111.0244141 80-23.0917969-177.034668c-.5195313-3.984375-3.9140625-6.965332-7.9326172-6.965332s-7.4130859 2.980957-7.9326172 6.965332l-23.0917969 177.034668h-20.03125l2.2109375-4.4223633c.5556641-1.1108398.8447266-2.3354492.8447266-3.5776367v-168c0-2.121582-.8427734-4.1567383-2.3432617-5.6567383l-11.9228516-11.9228516 5.4213867-10.8427734c1.0795898-2.1591797 1.1264648-4.6904297.1274414-6.8881836l-37.8891602-83.355957 40.6157227-47.3847656 36.9477539 18.4741211-14.8017578 74.0083008c-.5244141 2.6230469.2963867 5.3344727 2.1879883 7.2255859l24 24c1.5620117 1.5620117 3.609375 2.3432617 5.6567383 2.3432617s4.0947266-.78125 5.6567383-2.3432617l24-24c1.8916016-1.8911133 2.7124023-4.6025391 2.1879883-7.2255859l-14.8017578-74.0083008 42.534668-21.2675781-.0030518-.0061035c.5009766-.2504883.9802246-.5478516 1.4229736-.9020996l40-32c1.8974609-1.5185548 3.0024414-3.8168946 3.0024414-6.2470704v-72c0-2.121582-.8427734-4.1567383-2.3432617-5.6567383l-9.0996094-9.0996094 11.4428711-7.6289062 16 10.6665039v96.4052734l-69.6567383 69.6567383c-1.5004883 1.5-2.3432617 3.5351563-2.3432617 5.6567383v288c0 2.121582.8427734 4.1567383 2.3432617 5.6567383l2.3432617 2.3432617zm32.9755859-292.6865234 16-16v4.6865234 80 144h-16zm160 236.6865234c-3.8134766 0-7.0966797 2.6918945-7.8447266 6.4311523l-8 40c-.3486328 1.7441406-.1064453 3.5551758.6894531 5.1464844l2.2109376 4.4223633h-19.0556641v-48c0-4.418457-3.581543-8-8-8h-32c-3.8134766 0-7.0966797 2.6918945-7.8447266 6.4311523l-8 40c-.3486328 1.7441406-.1064453 3.5551758.6894531 5.1464844l2.2109376 4.4223633h-19.0556641v-48c0-4.418457-3.581543-8-8-8h-16v-15.0151367l30.9780273-123.9118652 32.9119873-20.5700684 56.6715088 21.251709 14.5522461 138.2453613zm-3.4309082-153.8306885-43.5908203-16.3465576 9.3161621-5.8227539h29.7055664 17.8707275z"/></svg>